<?xml version="1.0" standalone="no"?>
<!DOCTYPE svg PUBLIC "-//W3C//DTD SVG 20010904//EN"
 "http://www.w3.org/TR/2001/REC-SVG-20010904/DTD/svg10.dtd">
<svg version="1.0" xmlns="http://www.w3.org/2000/svg"
 width="256.000000pt" height="256.000000pt" viewBox="0 0 256.000000 256.000000"
 preserveAspectRatio="xMidYMid meet">

<g transform="translate(0.000000,256.000000) scale(0.100000,-0.100000)"
fill="#000000" stroke="none">
<path d="M1501 2233 c-1 -12 4 -25 9 -28 6 -3 11 -36 12 -73 l2 -67 3 61 c3
40 -1 74 -11 95 -12 28 -15 30 -15 12z"/>
<path d="M1498 2145 c-3 -22 -9 -49 -12 -60 -4 -11 1 -5 9 14 9 18 15 45 13
60 -3 21 -5 18 -10 -14z"/>
<path d="M1445 2013 c-9 -16 -49 -59 -89 -97 -59 -58 -62 -62 -18 -27 47 39
106 103 126 139 14 24 -2 11 -19 -15z"/>
<path d="M1480 1982 c-25 -46 -108 -135 -247 -262 -64 -59 -113 -129 -113
-162 0 -7 12 11 25 41 17 36 48 74 92 115 134 122 220 212 247 259 16 26 27
50 24 52 -2 2 -15 -17 -28 -43z"/>
<path d="M1235 1814 l-40 -36 43 32 c36 27 49 40 40 40 -2 0 -21 -16 -43 -36z"/>
<path d="M1638 1838 c-16 -5 -28 -14 -28 -19 0 -6 -4 -8 -10 -4 -9 6 -130 -50
-130 -60 0 -3 22 6 50 20 58 29 67 31 49 8 -8 -9 6 -3 31 13 25 17 54 36 65
42 24 14 10 14 -27 0z"/>
<path d="M1125 1718 l-60 -63 63 60 c58 55 67 65 59 65 -1 0 -29 -28 -62 -62z"/>
<path d="M1529 1753 c-13 -16 -12 -17 4 -4 9 7 17 15 17 17 0 8 -8 3 -21 -13z"/>
<path d="M1412 1718 c-22 -18 -51 -46 -63 -63 -19 -26 -17 -26 12 5 19 19 50
47 69 62 19 15 32 28 29 28 -3 0 -25 -15 -47 -32z"/>
<path d="M1456 1690 c-25 -27 -46 -52 -46 -56 0 -4 1 -5 3 -3 2 2 25 28 52 57
26 28 45 52 43 52 -3 0 -26 -22 -52 -50z"/>
<path d="M1050 1629 c-7 -11 -10 -23 -7 -25 2 -2 9 7 15 21 14 30 7 33 -8 4z"/>
<path d="M1306 1585 c-3 -9 -5 -40 -4 -68 l1 -52 7 65 c7 70 6 80 -4 55z"/>
<path d="M1391 1564 c0 -23 5 -48 15 -60 8 -10 12 -12 8 -4 -5 8 -11 35 -15
60 l-6 45 -2 -41z"/>
<path d="M1033 1550 c0 -25 2 -35 4 -22 2 12 2 32 0 45 -2 12 -4 2 -4 -23z"/>
<path d="M1113 1505 c0 -22 2 -30 4 -17 2 12 2 30 0 40 -3 9 -5 -1 -4 -23z"/>
<path d="M1040 1495 c0 -5 5 -17 10 -25 5 -8 10 -10 10 -5 0 6 -5 17 -10 25
-5 8 -10 11 -10 5z"/>
<path d="M1077 1421 c18 -33 202 -231 187 -201 -17 34 -46 69 -56 67 -10 -2
-89 84 -131 143 -17 24 -17 24 0 -9z"/>
<path d="M1130 1426 c0 -11 30 -66 36 -66 2 0 -3 15 -12 33 -19 36 -24 44 -24
33z"/>
<path d="M1320 1421 c0 -6 4 -13 10 -16 6 -3 7 1 4 9 -7 18 -14 21 -14 7z"/>
<path d="M1465 1406 c10 -14 19 -26 22 -26 7 0 -17 39 -28 46 -6 3 -3 -5 6
-20z"/>
<path d="M1495 1315 c0 -44 -5 -59 -30 -91 -17 -20 -35 -36 -39 -35 -10 3 -26
-18 -26 -34 0 -16 79 67 95 101 16 34 20 81 7 101 -4 6 -7 -13 -7 -42z"/>
<path d="M1375 1340 c10 -11 20 -20 23 -20 3 0 -3 9 -13 20 -10 11 -20 20 -23
20 -3 0 3 -9 13 -20z"/>
<path d="M1406 1297 c3 -10 9 -15 12 -12 3 3 0 11 -7 18 -10 9 -11 8 -5 -6z"/>
<path d="M1423 1235 c0 -22 2 -30 4 -17 2 12 2 30 0 40 -3 9 -5 -1 -4 -23z"/>
<path d="M1815 1190 l-30 -8 34 -1 c46 -1 96 -34 116 -78 14 -29 15 -42 6 -73
-17 -56 -62 -111 -127 -155 -81 -54 -85 -58 -38 -41 122 43 204 104 230 171
32 84 -10 161 -100 184 -49 12 -48 12 -91 1z"/>
<path d="M875 1151 c-73 -21 -150 -55 -159 -69 -4 -6 4 -18 16 -26 109 -70
778 -52 917 25 20 11 27 17 16 15 -139 -36 -724 -56 -787 -29 -52 23 -29 52
71 88 56 21 0 18 -74 -4z"/>
<path d="M914 921 c-44 -27 -50 -40 -28 -61 70 -68 417 -80 667 -24 l67 16
-34 23 c-33 22 -34 22 -112 7 -117 -22 -445 -22 -497 1 -31 13 -37 20 -32 37
8 24 8 24 -31 1z"/>
<path d="M963 708 c-42 -20 -40 -54 6 -81 76 -45 311 -64 446 -37 75 15 165
42 165 49 -1 3 -21 16 -45 28 -43 21 -46 21 -132 6 -63 -11 -123 -14 -213 -10
-131 6 -190 19 -190 43 0 16 -7 17 -37 2z"/>
<path d="M688 561 c-84 -27 -138 -65 -138 -97 0 -14 72 -35 166 -48 373 -52
770 -42 1040 25 123 31 197 80 166 111 -8 7 -13 9 -12 3 11 -55 -101 -91 -354
-115 -154 -14 -547 -14 -662 0 -140 17 -224 42 -224 66 0 18 39 43 92 59 39
12 40 14 13 14 -16 0 -55 -8 -87 -18z"/>
<path d="M1950 418 c-67 -34 -174 -62 -323 -85 -121 -18 -579 -25 -706 -10
-35 4 -62 5 -59 2 16 -16 245 -35 431 -35 284 0 472 22 605 72 49 18 124 72
112 80 -3 2 -30 -9 -60 -24z"/>
</g>
</svg>
